<svg width="28" height="33" viewBox="0 0 28 33" fill="none" xmlns="http://www.w3.org/2000/svg">
<path d="M21.3704 33H23.4498C24.502 33 25.3664 32.0396 25.4916 30.809L27.5585 6.07776H21.2952V0H18.8275V6.07776H12.6018L12.9776 9.58936C15.1196 10.2947 17.1239 11.5703 18.3264 12.9809C20.1302 15.1119 21.3704 17.3179 21.3704 20.9195V33ZM0 31.4993V30.0136H18.8275V31.4993C18.8275 32.3247 18.2638 33 17.5623 33H1.26519C0.563697 33 0 32.3247 0 31.4993ZM18.8275 20.9945C18.8275 8.98909 0 8.98909 0 20.9945H18.8275ZM0.0250532 24.0109H18.8149V27.0123H0.0250532V24.0109Z" fill="#FFAC4B"/>
</svg>
