<svg width="25" height="29" viewBox="0 0 25 29" fill="none" xmlns="http://www.w3.org/2000/svg">
<path d="M3.02726 29C2.19476 29 1.48235 28.6758 0.890014 28.0273C0.296671 27.3777 0 26.5971 0 25.6857V10.7714C0 10.2467 0.107467 9.74952 0.322403 9.28C0.536329 8.81048 0.832497 8.42381 1.2109 8.12L10.2927 0.662857C10.5702 0.441905 10.8603 0.27619 11.163 0.165714C11.4657 0.0552379 11.7811 0 12.109 0C12.437 0 12.7523 0.0552379 13.0551 0.165714C13.3578 0.27619 13.6479 0.441905 13.9254 0.662857L23.0072 8.12C23.3856 8.42381 23.6823 8.81048 23.8972 9.28C24.1111 9.74952 24.2181 10.2467 24.2181 10.7714V25.6857C24.2181 26.5971 23.9219 27.3777 23.3296 28.0273C22.7362 28.6758 22.0233 29 21.1908 29H15.1363V17.4H9.08178V29H3.02726Z" fill="#FFAC4B"/>
</svg>
