<svg width="35" height="33" viewBox="0 0 35 33" fill="none" xmlns="http://www.w3.org/2000/svg">
<path d="M6.7375 24.915C8.225 23.8425 9.8875 22.9966 11.725 22.3773C13.5625 21.7591 15.4875 21.45 17.5 21.45C19.5125 21.45 21.4375 21.7591 23.275 22.3773C25.1125 22.9966 26.775 23.8425 28.2625 24.915C29.2833 23.7875 30.0784 22.5087 30.6478 21.0787C31.2159 19.6487 31.5 18.1225 31.5 16.5C31.5 12.8425 30.1368 9.72785 27.4103 7.15605C24.6826 4.58535 21.3792 3.3 17.5 3.3C13.6208 3.3 10.318 4.58535 7.5915 7.15605C4.86383 9.72785 3.5 12.8425 3.5 16.5C3.5 18.1225 3.78467 19.6487 4.354 21.0787C4.92217 22.5087 5.71667 23.7875 6.7375 24.915ZM17.5 18.15C15.7792 18.15 14.3278 17.5934 13.146 16.4802C11.9653 15.3659 11.375 13.9975 11.375 12.375C11.375 10.7525 11.9653 9.3841 13.146 8.2698C14.3278 7.1566 15.7792 6.6 17.5 6.6C19.2208 6.6 20.6722 7.1566 21.854 8.2698C23.0347 9.3841 23.625 10.7525 23.625 12.375C23.625 13.9975 23.0347 15.3659 21.854 16.4802C20.6722 17.5934 19.2208 18.15 17.5 18.15ZM17.5 33C15.0792 33 12.8042 32.5666 10.675 31.6998C8.54583 30.8341 6.69375 29.6588 5.11875 28.1738C3.54375 26.6888 2.29717 24.9425 1.379 22.935C0.459667 20.9275 0 18.7825 0 16.5C0 14.2175 0.459667 12.0725 1.379 10.065C2.29717 8.0575 3.54375 6.31125 5.11875 4.82625C6.69375 3.34125 8.54583 2.16535 10.675 1.29855C12.8042 0.43285 15.0792 0 17.5 0C19.9208 0 22.1958 0.43285 24.325 1.29855C26.4542 2.16535 28.3063 3.34125 29.8813 4.82625C31.4563 6.31125 32.7028 8.0575 33.621 10.065C34.5403 12.0725 35 14.2175 35 16.5C35 18.7825 34.5403 20.9275 33.621 22.935C32.7028 24.9425 31.4563 26.6888 29.8813 28.1738C28.3063 29.6588 26.4542 30.8341 24.325 31.6998C22.1958 32.5666 19.9208 33 17.5 33Z" fill="#FFAC4B"/>
</svg>
