<svg width="181" height="118" viewBox="0 0 181 118" fill="none" xmlns="http://www.w3.org/2000/svg">
<g clip-path="url(#clip0_1_265)">
<path d="M81.7165 47.5721L86.122 51.0426L109.444 21.4379L105.038 17.9674L81.7165 47.5721Z" fill="#E0711B"/>
<path d="M71.5551 21.4382L94.877 51.0429L99.2825 47.5724L75.9606 17.9677L71.5551 21.4382Z" fill="#E79C25"/>
<path d="M104.917 100.035H76.0827V85.1191H104.917V100.035H104.917Z" fill="#D7D7D7"/>
<path d="M104.917 100.035H90.5V85.1191H104.917V100.035Z" fill="#B0B0B0"/>
<path d="M104.94 90.728H76.0596L75.5887 90.5539C67.4298 87.5372 60.4477 82.1765 55.3967 75.0513C50.2305 67.7634 47.5 59.174 47.5 50.2119V47.4075H133.5V50.2119C133.5 59.1742 130.769 67.7634 125.603 75.0511C120.552 82.1763 113.57 87.5372 105.411 90.5538L104.94 90.728Z" fill="#F7F7F8"/>
<path d="M104.94 90.728H90.4973L90.5 47.4076H133.5V50.212C133.5 59.1744 130.769 67.7636 125.603 75.0513C120.552 82.1765 113.57 87.5374 105.411 90.5539L104.94 90.728Z" fill="#D7D7D7"/>
</g>
<defs>
<clipPath id="clip0_1_265">
<rect width="86" height="86" fill="white" transform="translate(47.5 16)"/>
</clipPath>
</defs>
</svg>
