<svg width="181" height="118" viewBox="0 0 181 118" fill="none" xmlns="http://www.w3.org/2000/svg">
<g clip-path="url(#clip0_1_268)">
<path d="M104.766 38.4218C101.031 33.0522 95.964 30.095 90.4999 30.095C85.036 30.095 79.9693 33.0522 76.2339 38.4216C72.7141 43.4814 70.7755 50.1589 70.7755 57.2238C70.7755 68.6832 79.6237 78.0059 90.4998 78.0059C101.376 78.0059 110.224 68.6832 110.224 57.2238C110.224 50.1593 108.286 43.4816 104.766 38.4218Z" fill="#FFF8DA"/>
<path d="M90.4999 78.0059C101.376 78.0059 110.224 68.6832 110.224 57.2238C110.224 50.1591 108.286 43.4816 104.766 38.4216C101.031 33.0522 95.964 30.095 90.4999 30.095" fill="#FFD6A0"/>
<path d="M81.1661 43.2239C84.4027 43.2239 86.1749 44.4999 87.4692 45.4313C88.5013 46.1744 89.0696 46.5839 90.5003 46.5839C91.9309 46.5839 92.4992 46.1747 93.5313 45.4313C94.8254 44.4998 96.5978 43.2239 99.8344 43.2239C103.071 43.2239 104.843 44.4999 106.137 45.4315C107.038 46.0805 107.586 46.4746 108.663 46.564C107.743 43.5745 106.432 40.8167 104.766 38.4216C101.031 33.0522 95.964 30.095 90.4999 30.095C85.036 30.095 79.9693 33.0522 76.2339 38.4216C74.5677 40.8167 73.2568 43.5745 72.3371 46.5642C73.4143 46.4748 73.962 46.0805 74.8637 45.4315C76.1576 44.4999 77.9296 43.2239 81.1661 43.2239Z" fill="#F285B9"/>
<path d="M102.864 49.9762C101.833 49.2333 101.265 48.824 99.8346 48.824C98.404 48.824 97.8356 49.2331 96.8035 49.9765C95.5092 50.908 93.737 52.184 90.5004 52.184C87.2638 52.184 85.4914 50.9079 84.1973 49.9765C83.1652 49.2335 82.5967 48.824 81.1663 48.824C79.7361 48.824 79.1678 49.2331 78.136 49.9762C76.8419 50.9079 75.0699 52.1838 71.8334 52.1838C71.5844 52.1838 71.3471 52.1739 71.115 52.1595C70.8912 53.8129 70.7759 55.5069 70.7759 57.2238C70.7759 58.0447 70.8228 58.8541 70.9111 59.6504H110.089C110.178 58.8541 110.225 58.0447 110.225 57.2238C110.225 55.5069 110.109 53.8133 109.886 52.1595C109.654 52.1739 109.416 52.1838 109.168 52.1838C105.931 52.1838 104.159 50.9077 102.864 49.9762Z" fill="#AED5F3"/>
<path d="M90.4999 59.6504H110.089C110.177 58.8541 110.224 58.0447 110.224 57.2238C110.224 55.5069 110.109 53.8133 109.885 52.1595C109.653 52.1739 109.416 52.1838 109.167 52.1838C105.931 52.1838 104.159 50.9077 102.865 49.9762C101.833 49.2333 101.265 48.824 99.8347 48.824C98.4041 48.824 97.8358 49.2331 96.8037 49.9765C95.5094 50.908 93.7372 52.184 90.5006 52.184" fill="#78B9EB"/>
<path d="M90.4999 78.0059C98.6768 78.0059 105.707 72.7359 108.693 65.2504H72.3067C75.2928 72.736 82.3229 78.0059 90.4999 78.0059Z" fill="#F285B9"/>
<path d="M90.5002 46.5839C91.9309 46.5839 92.4992 46.1747 93.5313 45.4313C94.8254 44.4998 96.5978 43.2239 99.8344 43.2239C103.071 43.2239 104.843 44.4999 106.137 45.4315C107.038 46.0805 107.586 46.4746 108.663 46.564C107.743 43.5745 106.432 40.8167 104.766 38.4216C101.031 33.0522 95.964 30.095 90.4999 30.095" fill="#EE5DA2"/>
<path d="M90.4999 78.0059C98.6768 78.0059 105.707 72.7359 108.693 65.2504H90.4999C90.4999 65.2504 90.4999 75.3305 90.4999 78.0059Z" fill="#EE5DA2"/>
<path d="M118.217 59.3394H62.7828C54.9071 59.3394 48.5 65.7468 48.5 73.6223C48.5 81.4978 54.9071 87.905 62.7828 87.905H118.217C126.093 87.905 132.5 81.4978 132.5 73.6221C132.5 65.7465 126.093 59.3394 118.217 59.3394Z" fill="#FFD6A0"/>
<path d="M118.217 59.3394H90.4999V87.9049H118.217C126.093 87.9049 132.5 81.4976 132.5 73.622C132.5 65.7463 126.093 59.3394 118.217 59.3394Z" fill="#FFC170"/>
<path d="M96.8029 70.8803C95.5087 69.9486 93.7365 68.6729 90.4999 68.6729C87.2633 68.6729 85.4911 69.9488 84.197 70.8803C83.1649 71.6234 82.5964 72.0329 81.1658 72.0329C79.7353 72.0329 79.1668 71.6237 78.1347 70.8806C76.8406 69.9489 75.0684 68.6729 71.8316 68.6729C68.5953 68.6729 66.8231 69.9489 65.5292 70.8806C64.4972 71.6235 63.9289 72.0329 62.4988 72.0329C61.0685 72.0329 60.5002 71.6237 59.4682 70.8806C58.1741 69.9489 56.4019 68.6729 53.1654 68.6729C51.4485 68.6729 50.1464 69.0333 49.1064 69.5096C48.7138 70.8127 48.5 72.1928 48.5 73.6223C48.5 74.5527 48.5924 75.4618 48.763 76.3431C49.286 76.036 49.7336 75.7139 50.1352 75.4248C51.1672 74.682 51.7355 74.2726 53.1654 74.2726C54.5957 74.2726 55.164 74.6818 56.196 75.4248C57.4901 76.3566 59.2623 77.6326 62.4988 77.6326C65.7352 77.6326 67.5074 76.3566 68.8014 75.4248C69.8333 74.682 70.4016 74.2726 71.8316 74.2726C73.2622 74.2726 73.8309 74.6818 74.8628 75.4252C76.1569 76.3569 77.9291 77.6326 81.1658 77.6326C84.4025 77.6326 86.1747 76.3566 87.4689 75.4248C88.501 74.682 89.0695 74.2726 90.4999 74.2726C91.9304 74.2726 92.4989 74.6818 93.531 75.4248" fill="#FFF8DA"/>
<path d="M90.4999 74.2726C91.9304 74.2726 92.4988 74.6818 93.531 75.4248C94.8251 76.3566 96.5973 77.6326 99.8341 77.6326C103.071 77.6326 104.843 76.3567 106.137 75.4252C107.169 74.6821 107.738 74.2726 109.168 74.2726C110.598 74.2726 111.166 74.6818 112.198 75.4248C113.492 76.3566 115.265 77.6326 118.501 77.6326C121.738 77.6326 123.51 76.3566 124.804 75.4248C125.836 74.682 126.404 74.2726 127.834 74.2726C129.264 74.2726 129.833 74.6818 130.865 75.4248C131.266 75.7138 131.714 76.036 132.237 76.3429C132.407 75.4614 132.5 74.5527 132.5 73.6221C132.5 72.1928 132.286 70.8126 131.894 69.5094C130.854 69.033 129.551 68.6727 127.835 68.6727C124.598 68.6727 122.826 69.9488 121.532 70.8805C120.5 71.6234 119.932 72.0327 118.501 72.0327C117.071 72.0327 116.503 71.6235 115.471 70.8805C114.177 69.9488 112.405 68.6727 109.168 68.6727C105.932 68.6727 104.159 69.9488 102.865 70.8805C101.833 71.6234 101.265 72.0327 99.8342 72.0327C98.4036 72.0327 97.835 71.6235 96.803 70.8802C95.5089 69.9484 93.7367 68.6727 90.5001 68.6727" fill="#FFF0B4"/>
<path d="M71.0554 63.9382C71.0554 61.4335 73.0931 59.3958 75.5978 59.3958L66.5626 59.3392C65.8566 60.7208 65.4555 62.2831 65.4555 63.938H71.0554V63.9382Z" fill="#FF9811"/>
<path d="M105.402 59.3958C107.907 59.3958 109.944 61.4335 109.944 63.9382H115.544C115.544 62.2831 115.143 60.7209 114.437 59.3394L105.402 59.3958Z" fill="#FF9811"/>
<path d="M93.2998 59.3397H87.6999V64.0063H93.2998V59.3397Z" fill="#FF9811"/>
</g>
<defs>
<clipPath id="clip0_1_268">
<rect width="84" height="84" fill="white" transform="translate(48.5 17)"/>
</clipPath>
</defs>
</svg>
