<svg width="181" height="118" viewBox="0 0 181 118" fill="none" xmlns="http://www.w3.org/2000/svg">
<g clip-path="url(#clip0_1_275)">
<path d="M87.6002 27.1604H64.1425C63.5244 27.1604 63.0232 27.6616 63.0232 28.2798V31.6838C63.0232 32.302 63.5244 32.8032 64.1425 32.8032C64.7607 32.8032 65.2619 32.302 65.2619 31.6838H86.481C86.481 32.302 86.9822 32.8032 87.6002 32.8032C88.2183 32.8032 88.7196 32.302 88.7196 31.6838V28.2798C88.7196 27.6616 88.2184 27.1604 87.6002 27.1604Z" fill="#CFCDD6"/>
<path d="M75.8714 27.1604H64.1425C63.5244 27.1604 63.0232 27.6616 63.0232 28.2798V31.6838C63.0232 32.302 63.5244 32.8032 64.1425 32.8032C64.7607 32.8032 65.2619 32.302 65.2619 31.6838H75.8714V27.1604Z" fill="#DEE1E7"/>
<path d="M92.46 40.2875C92.2483 40.0583 91.9502 39.9278 91.638 39.9278H60.1048C59.7926 39.9278 59.4947 40.0583 59.2827 40.2875C59.071 40.5169 58.9644 40.8242 58.9891 41.1353L62.8349 89.8084C62.8809 90.3905 63.3667 90.8394 63.9508 90.8394H87.7926C88.3765 90.8394 88.8623 90.3905 88.9084 89.8084L92.7542 41.1353C92.7785 40.8242 92.6719 40.5169 92.46 40.2875Z" fill="#BC2A46"/>
<path d="M75.8715 39.9278H60.1048C59.7926 39.9278 59.4947 40.0583 59.2827 40.2875C59.071 40.5169 58.9644 40.8242 58.9891 41.1353L62.8349 89.8084C62.8809 90.3905 63.3667 90.8394 63.9508 90.8394H75.8717V39.9278H75.8715Z" fill="#D62D46"/>
<path d="M95.7346 42.3431L94.4457 31.7884C94.3772 31.2268 93.9005 30.8047 93.3348 30.8047H58.4081C57.8424 30.8047 57.3657 31.2268 57.297 31.7884L56.0081 42.3431C55.9693 42.6613 56.0687 42.9808 56.281 43.2208C56.4935 43.4608 56.7985 43.5982 57.1191 43.5982H94.6233C94.9438 43.5982 95.2489 43.4608 95.4613 43.2208C95.6741 42.9808 95.7734 42.6613 95.7346 42.3431Z" fill="#0E4151"/>
<path d="M75.8715 30.8049H58.4081C57.8424 30.8049 57.3657 31.227 57.297 31.7885L56.0081 42.3432C55.9693 42.6614 56.0687 42.9809 56.281 43.221C56.4935 43.461 56.7985 43.5982 57.1191 43.5982H75.8712V30.8049H75.8715Z" fill="#144F66"/>
<path d="M107.564 59.8312H86.4712C78.5029 59.8312 72.0201 66.3139 72.0201 74.2824H122.015C122.015 66.314 115.533 59.8312 107.564 59.8312Z" fill="#DBAD75"/>
<path d="M97.0178 59.8312H86.4712C78.5029 59.8312 72.0201 66.3139 72.0201 74.2824H97.0178V59.8312Z" fill="#EABD81"/>
<path d="M72.0201 82.6565C72.0201 87.1686 75.691 90.8396 80.2031 90.8396H113.832C118.344 90.8396 122.015 87.1687 122.015 82.6565H72.0201Z" fill="#DBAD75"/>
<path d="M72.0201 82.6565C72.0201 87.1686 75.691 90.8396 80.2031 90.8396H97.0178V82.6565H72.0201Z" fill="#EABD81"/>
<path d="M119.254 72.4665H74.7817C71.6133 72.4665 69.0355 75.0443 69.0355 78.2129C69.0355 81.3815 71.6133 83.9591 74.7817 83.9591H119.254C122.422 83.9591 125 81.3813 125 78.2129C125 75.0444 122.422 72.4665 119.254 72.4665Z" fill="#885F3E"/>
<path d="M97.0178 72.4665H74.7817C71.6133 72.4665 69.0355 75.0443 69.0355 78.2129C69.0355 81.3815 71.6133 83.9591 74.7817 83.9591H97.0177V72.4663L97.0178 72.4665Z" fill="#A67C52"/>
</g>
<defs>
<clipPath id="clip0_1_275">
<rect width="69" height="69" fill="white" transform="translate(56 24.5)"/>
</clipPath>
</defs>
</svg>
