<svg width="181" height="118" viewBox="0 0 181 118" fill="none" xmlns="http://www.w3.org/2000/svg">
<g clip-path="url(#clip0_1_277)">
<path d="M47.5667 94.4168C45.873 94.4168 44.5 93.0438 44.5 91.35V77.0176C44.5 71.6708 46.2611 66.5947 49.5091 62.4518C46.2611 58.3087 44.5 53.2326 44.5 47.8858V33.5534C44.5 31.8598 45.873 30.4866 47.5667 30.4866C59.6455 30.4866 69.4722 40.3134 69.4722 52.3922V72.5109C69.4722 84.5898 59.6455 94.4168 47.5667 94.4168Z" fill="#FBB071"/>
<path d="M49.5057 62.4475C49.5068 62.4489 49.5077 62.4504 49.509 62.4518C46.2611 66.5945 44.5 71.6707 44.5 77.0176V91.35C44.5 93.0436 45.873 94.4168 47.5667 94.4168C59.6455 94.4168 69.4722 84.59 69.4722 72.5112V62.4477H49.5057V62.4475Z" fill="#FF835D"/>
<path d="M74.5098 52.1402C65.8544 25.192 105.303 11.6248 115.682 37.205C116.576 39.4081 114.721 41.7584 112.363 41.3874C104.482 40.1457 92.2034 42.8745 79.3937 53.5576C77.7285 54.9464 75.1759 54.214 74.5098 52.1402Z" fill="#FBB071"/>
<path d="M63.9496 64.2895C63.1332 63.1997 63.1334 61.7018 63.9499 60.6122C74.4553 46.589 96.3251 31.5977 114.865 35.618C117.066 36.0949 118.02 38.7092 116.642 40.4909C106.655 53.4063 106.632 71.4712 116.643 84.4132C118.01 86.1801 117.087 88.8102 114.864 89.2894C96.7763 93.1897 74.8986 78.9067 63.9496 64.2895Z" fill="#F6D86E"/>
<path d="M109.143 62.4475H63.3375C63.3366 63.0954 63.5408 63.7434 63.9497 64.2893C74.8988 78.9067 96.7763 93.1893 114.864 89.289C117.087 88.8098 118.01 86.1799 116.643 84.4128C111.639 77.9436 109.142 70.194 109.143 62.4475Z" fill="#FBB071"/>
<path d="M111.792 88.1656C100.247 73.241 99.9176 52.0923 111.79 36.7389C112.512 35.8041 113.708 35.3675 114.862 35.6173C127.288 38.2986 136.5 49.3607 136.5 62.4511C136.5 75.5471 127.284 86.6065 114.865 89.287C113.697 89.539 112.507 89.0901 111.792 88.1656Z" fill="#FAE8AC"/>
<path d="M103.01 62.4475C103.016 71.5751 105.984 80.6579 111.792 88.1656C112.507 89.0901 113.698 89.5388 114.865 89.2869C127.284 86.6063 136.5 75.5467 136.5 62.4511C136.5 62.4498 136.5 62.4487 136.5 62.4477H103.01V62.4475Z" fill="#F6D86E"/>
<path d="M125.941 57.6121C127.787 57.6121 129.283 56.1154 129.283 54.2692C129.283 52.423 127.787 50.9263 125.941 50.9263C124.094 50.9263 122.598 52.423 122.598 54.2692C122.598 56.1154 124.094 57.6121 125.941 57.6121Z" fill="#8F5543"/>
</g>
<defs>
<clipPath id="clip0_1_277">
<rect width="92" height="92" fill="white" transform="translate(44.5 13)"/>
</clipPath>
</defs>
</svg>
