<svg width="181" height="118" viewBox="0 0 181 118" fill="none" xmlns="http://www.w3.org/2000/svg">
<g clip-path="url(#clip0_1_274)">
<path d="M68.8295 36.0527C67.506 40.969 67.873 46.3619 70.0637 51.5249C72.1485 56.4393 76.0033 60.2941 80.9177 62.3789C84.092 63.7258 87.3533 64.3843 90.5375 64.3843C96.4265 64.3842 102.051 62.1311 106.37 57.8121C112.127 52.056 114.209 43.982 112.184 36.0525L68.8295 36.0527Z" fill="#F285B9"/>
<path d="M90.5005 36.0527V64.3839C90.5128 64.3839 90.5253 64.3845 90.5376 64.3845C96.4267 64.3843 102.051 62.1313 106.37 57.8122C112.127 52.0562 114.209 43.9821 112.184 36.0527H90.5005Z" fill="#EE5DA2"/>
<path d="M100.083 21.5054C91.0376 17.6677 81.2848 19.4178 74.6304 26.0723C71.1805 29.522 69.0527 33.8053 68.3343 38.3903C69.3599 37.8437 70.3767 37.4833 72.1863 37.4833C74.5104 37.4833 75.5269 38.0764 76.9336 38.8971C78.5736 39.8539 80.6147 41.0445 84.3951 41.0445C88.1755 41.0445 90.2167 39.8538 91.8569 38.8971C93.2636 38.0764 94.2803 37.4833 96.6043 37.4833C98.9286 37.4833 99.945 38.0764 101.352 38.8971C102.992 39.8539 105.033 41.0445 108.814 41.0445C110.468 41.0445 111.789 40.8164 112.89 40.4797C112.715 37.7766 112.073 35.0371 110.937 32.3593C108.852 27.4451 104.998 23.5903 100.083 21.5054Z" fill="#FFDA44"/>
<path d="M69.8524 50.9196V65.2834H76.3323L87.0882 98.5H93.9129L104.668 65.2834H111.149V50.9196H69.8524Z" fill="#FFAD41"/>
<path d="M90.5005 50.9196V98.5H93.9129L104.668 65.2834H111.149V50.9196H90.5005Z" fill="#BF720D"/>
<path d="M110.937 32.3594C108.852 27.4451 104.998 23.5903 100.083 21.5054C96.9212 20.1638 93.673 19.5076 90.5005 19.5023V39.6512C90.9933 39.4003 91.4386 39.1411 91.8572 38.8968C93.2639 38.0761 94.2806 37.483 96.6046 37.483C98.9289 37.483 99.9453 38.0761 101.352 38.8968C102.992 39.8536 105.034 41.0442 108.814 41.0442C110.469 41.0442 111.79 40.8161 112.89 40.4794C112.716 37.7768 112.073 35.0372 110.937 32.3594Z" fill="#FFAD41"/>
</g>
<defs>
<clipPath id="clip0_1_274">
<rect width="79" height="79" fill="white" transform="translate(51 19.5)"/>
</clipPath>
</defs>
</svg>
