<svg width="181" height="118" viewBox="0 0 181 118" fill="none" xmlns="http://www.w3.org/2000/svg">
<g clip-path="url(#clip0_1_263)">
<path d="M106.071 32.5286C106.071 35.1085 103.98 37.2 101.4 37.2H54.6857C52.1058 37.2 50.0143 35.1085 50.0143 32.5286C50.0143 29.9487 52.1058 27.8571 54.6857 27.8571H101.4C103.98 27.8571 106.071 29.9487 106.071 32.5286Z" fill="#ACABB1"/>
<path d="M65.5857 27.8571H54.6857C52.1058 27.8571 50.0143 29.9487 50.0143 32.5286C50.0143 35.1085 52.1058 37.2 54.6857 37.2H65.5857V27.8571Z" fill="#BD3C1A"/>
<path d="M102.957 32.5286L101.4 21.6286C95.3801 21.6286 90.5 26.5087 90.5 32.5286C90.5 38.5485 95.3801 43.4286 101.4 43.4286L102.957 32.5286Z" fill="#CDCDD0"/>
<path d="M118.529 74.5714H99.8429V21.6286H109.186L118.529 49.6571V74.5714Z" fill="#FFDA44"/>
<path d="M116.33 85.4714C117.746 82.1208 118.529 78.4375 118.529 74.5714C118.529 59.0916 105.98 46.5429 90.5 46.5429C75.0201 46.5429 62.4714 59.0916 62.4714 74.5714C62.4714 78.4375 63.2544 82.1208 64.6701 85.4714H116.33Z" fill="#FFDA44"/>
<path d="M90.5 85.4714C90.5 78.3326 90.5 71.4571 90.5 46.5429C75.0201 46.5429 62.4714 59.0916 62.4714 74.5714C62.4714 78.4375 63.2544 82.1208 64.6701 85.4714H90.5Z" fill="#FFAD41"/>
<path d="M105.673 85.4714C107.881 82.4029 109.186 78.6406 109.186 74.5714C109.186 64.2516 100.82 55.8857 90.5 55.8857C80.1802 55.8857 71.8143 64.2516 71.8143 74.5714C71.8143 78.6406 73.1189 82.4029 75.3275 85.4714H105.673Z" fill="#FFE98F"/>
<path d="M90.5 83.9143C95.6599 83.9143 99.8429 79.7314 99.8429 74.5714C99.8429 69.4115 95.6599 65.2286 90.5 65.2286C85.3401 65.2286 81.1571 69.4115 81.1571 74.5714C81.1571 79.7314 85.3401 83.9143 90.5 83.9143Z" fill="#FFDA44"/>
<path d="M90.5 83.9143C85.3402 83.9143 81.1571 79.7312 81.1571 74.5714C81.1571 69.4117 85.3402 65.2286 90.5 65.2286" fill="#FFAD41"/>
<path d="M62.4714 87.0286C69.3513 87.0286 74.9286 81.4513 74.9286 74.5714C74.9286 67.6915 69.3513 62.1143 62.4714 62.1143C55.5915 62.1143 50.0143 67.6915 50.0143 74.5714C50.0143 81.4513 55.5915 87.0286 62.4714 87.0286Z" fill="#BD3C1A"/>
<path d="M118.529 87.0286C125.408 87.0286 130.986 81.4513 130.986 74.5714C130.986 67.6915 125.408 62.1143 118.529 62.1143C111.649 62.1143 106.071 67.6915 106.071 74.5714C106.071 81.4513 111.649 87.0286 118.529 87.0286Z" fill="#FF5023"/>
<path d="M140.329 74.5714H40.6714C38.0916 74.5714 36 76.663 36 79.2429C36 81.8227 38.0916 83.9143 40.6714 83.9143H43.7857C43.7857 90.7941 49.3631 96.3714 56.2429 96.3714H124.757C131.637 96.3714 137.214 90.7941 137.214 83.9143H140.329C142.908 83.9143 145 81.8227 145 79.2429C145 76.663 142.908 74.5714 140.329 74.5714Z" fill="#91DC5A"/>
<path d="M90.5 74.5714H40.6714C38.0916 74.5714 36 76.663 36 79.2429C36 81.8227 38.0916 83.9143 40.6714 83.9143H43.7857C43.7857 90.7941 49.3631 96.3714 56.2429 96.3714H90.5V74.5714Z" fill="#64C37D"/>
<path d="M109.186 21.6286V51.2143C109.186 53.7942 111.277 55.8857 113.857 55.8857C116.437 55.8857 118.529 53.7942 118.529 51.2143V21.6286H109.186Z" fill="#FFE98F"/>
</g>
<defs>
<clipPath id="clip0_1_263">
<rect width="109" height="109" fill="white" transform="translate(36 4.5)"/>
</clipPath>
</defs>
</svg>
