<svg width="181" height="118" viewBox="0 0 181 118" fill="none" xmlns="http://www.w3.org/2000/svg">
<g clip-path="url(#clip0_1_269)">
<path d="M99.6846 14.1167C98.0566 15.9359 95.2627 16.0902 93.4447 14.4623C92.6346 13.737 91.5888 13.3378 90.5 13.3378C88.0634 13.3378 86.0811 15.3202 86.0811 17.7568C86.0811 20.1933 88.0634 22.1757 90.5 22.1757C92.9404 22.1757 94.9189 24.1542 94.9189 26.5946V109.081C94.9189 111.521 92.9404 113.5 90.5 113.5C88.0596 113.5 86.0811 111.521 86.0811 109.081V30.2535C80.9377 28.4293 77.2432 23.5176 77.2432 17.7568C77.2432 10.447 83.1899 4.5 90.5 4.5C93.7673 4.5 96.9062 5.69929 99.339 7.87694C101.158 9.50457 101.312 12.2985 99.6846 14.1167Z" fill="#CDCDD0"/>
<path d="M90.5 13.3378C88.0634 13.3378 86.0811 15.3202 86.0811 17.7568C86.0811 20.1933 88.0634 22.1757 90.5 22.1757C90.5 34.4014 90.5 95.8243 90.5 113.5C88.0596 113.5 86.0811 111.521 86.0811 109.081V30.2535C80.9377 28.4293 77.2432 23.5176 77.2432 17.7568C77.2432 10.447 83.1899 4.5 90.5 4.5C90.5 8.03514 90.5 10.2446 90.5 13.3378Z" fill="#ACABB1"/>
<path d="M117.014 50.1622C117.014 50.3828 106.408 101.716 106.408 101.716H74.5919L63.9865 50.1622C63.9865 50.1622 70.6149 36.9054 90.5 36.9054C110.385 36.9054 117.014 49.9415 117.014 50.1622Z" fill="#FF5023"/>
<path d="M90.5 101.716H74.5919L63.9865 50.1622C63.9865 50.1622 70.6149 36.9054 90.5 36.9054C90.5 59.393 90.5 101.716 90.5 101.716Z" fill="#BD3C1A"/>
<path d="M81.6622 61.9462C81.6622 59.5058 79.6837 57.5273 77.2432 57.5273H65.5016L67.3198 66.3652H77.2432C79.6837 66.3652 81.6622 64.3867 81.6622 61.9462Z" fill="#802812"/>
<path d="M99.3378 70.7838C99.3378 73.2242 101.316 75.2027 103.757 75.2027H111.88C112.501 72.1881 113.119 69.1874 113.7 66.3649H103.757C101.316 66.3649 99.3378 68.3434 99.3378 70.7838Z" fill="#BD3C1A"/>
<path d="M81.6622 79.6216C81.6622 77.1812 79.6837 75.2027 77.2433 75.2027H69.1375L70.9557 84.0405H77.2433C79.6837 84.0405 81.6622 82.062 81.6622 79.6216Z" fill="#802812"/>
<path d="M103.757 84.0403C101.316 84.0403 99.3378 86.0187 99.3378 88.4592C99.3378 90.8996 101.316 92.8781 103.757 92.8781H108.233C108.771 90.2706 109.395 87.249 110.057 84.0403H103.757Z" fill="#BD3C1A"/>
</g>
<defs>
<clipPath id="clip0_1_269">
<rect width="109" height="109" fill="white" transform="translate(36 4.5)"/>
</clipPath>
</defs>
</svg>
