<svg width="181" height="114" viewBox="0 0 181 114" fill="none" xmlns="http://www.w3.org/2000/svg">
<g clip-path="url(#clip0_1_264)">
<path d="M57.9972 96.4276C60.7602 99.1901 65.2386 99.1901 68.001 96.4276C70.2285 94.1999 70.657 90.8564 69.2922 88.197C69.7432 87.9164 70.1728 87.5861 70.5661 87.193L82.6215 75.1386C85.3828 72.3761 85.3828 67.8967 82.6215 65.1359C79.858 62.3729 75.3786 62.3729 72.6172 65.1348L60.5629 77.1902C60.1935 77.5585 59.8787 77.9588 59.6089 78.3808C56.9033 76.8171 53.3872 77.1842 51.0719 79.4995C48.3094 82.262 48.3094 86.7391 51.0719 89.5021C52.4179 90.847 54.1695 91.5322 55.9329 91.5664C55.967 93.3298 56.6524 95.0816 57.9972 96.4276Z" fill="#F1F2F1"/>
<path d="M99.1344 89.3666L106.064 82.4372C107.039 81.462 107.67 80.1959 107.862 78.8284L107.743 79.6775C108.104 77.086 110.021 74.9825 112.566 74.3804L112.848 74.3131C113.995 74.0424 115.043 73.458 115.877 72.6254L121.735 66.7663C128.753 59.7478 125.462 45.0545 114.414 33.7759C103.137 22.7306 88.444 19.437 81.4259 26.4568L74.4961 33.386C73.5208 34.3614 72.8899 35.628 72.6986 36.9949L72.8178 36.1458C72.455 38.7384 70.54 40.8419 67.9921 41.4429L67.7108 41.5101C66.5646 41.782 65.517 42.3653 64.6833 43.199L58.8255 49.057C51.8069 56.0755 55.0992 70.7688 66.1445 82.0474C77.423 93.0928 92.1141 96.3863 99.1344 89.3666Z" fill="#BF8D58"/>
<path d="M115.42 42.3395L121.882 35.8783C124.511 37.1311 127.751 36.6772 129.928 34.4999C132.689 31.7385 132.692 27.2601 129.928 24.4972C128.583 23.1524 126.829 22.467 125.067 22.4328C125.032 20.6695 124.348 18.9166 123.003 17.5718C120.239 14.8094 115.762 14.8094 113.001 17.5722C110.727 19.844 110.327 23.2746 111.794 25.9595L105.418 32.3357C102.654 35.0982 103.554 38.6755 106.318 41.439C109.081 44.201 112.659 45.1013 115.42 42.3395Z" fill="#F1F2F1"/>
<path opacity="0.05" d="M55.9329 91.5666C55.967 93.3298 56.6525 95.0816 57.9972 96.4276C60.7602 99.1901 65.2386 99.1901 68.001 96.4276C70.2285 94.1999 70.657 90.8564 69.2922 88.197C69.7432 87.9164 70.1728 87.5862 70.566 87.193L71.3351 86.4243C81.6002 93.8361 93.1529 95.3484 99.1343 89.3666L106.064 82.4372C107.039 81.462 107.67 80.1959 107.862 78.8284L107.742 79.6775C108.104 77.086 110.021 74.9825 112.566 74.3804L112.848 74.3131C113.995 74.0424 115.043 73.458 115.876 72.6254L121.734 66.7663C127.716 60.7848 126.205 49.2317 118.794 38.9665L121.882 35.8783C124.511 37.1311 127.751 36.6772 129.928 34.4999C132.689 31.7385 132.692 27.2601 129.928 24.4972C128.583 23.1524 126.829 22.467 125.067 22.4328L55.9329 91.5666Z" fill="#231815"/>
<path d="M111.212 74.874L111.333 74.4984L102.891 75.2052L107.604 79.9169L111.212 74.874Z" fill="#8A6343"/>
<g opacity="0.17">
<path d="M86.3576 32.1102C86.8914 32.6434 87.7582 32.6434 88.2919 32.1102C88.8257 31.5753 88.8257 30.7096 88.2919 30.1754C87.756 29.6405 86.8914 29.6405 86.3555 30.1743C85.824 30.7086 85.824 31.5753 86.3576 32.1102Z" fill="#8A6343"/>
<path d="M86.3555 43.2784C86.8914 43.8132 87.756 43.8132 88.2919 43.2784C88.8257 42.7441 88.8278 41.878 88.2919 41.3436C87.7582 40.8093 86.8914 40.8093 86.3576 41.3425C85.8217 41.878 85.8217 42.7443 86.3555 43.2784Z" fill="#8A6343"/>
<path d="M86.3555 54.5361C86.8914 55.0704 87.756 55.0693 88.2919 54.5351C88.8257 54.0019 88.8278 53.1351 88.2919 52.6003C87.7582 52.066 86.8914 52.066 86.3576 52.6003C85.8217 53.135 85.8217 54.0018 86.3555 54.5361Z" fill="#8A6343"/>
<path d="M96.7788 32.8579C97.3126 33.392 98.1794 33.391 98.7131 32.8567C99.2469 32.3236 99.2469 31.4563 98.7131 30.922C98.1794 30.3876 97.3126 30.3876 96.7788 30.922C96.2452 31.4563 96.2452 32.3236 96.7788 32.8579Z" fill="#8A6343"/>
<path d="M96.7788 44.1142C97.3126 44.6486 98.1794 44.6486 98.7131 44.1142C99.2469 43.5794 99.2469 42.7138 98.7131 42.1795C98.1794 41.6452 97.3126 41.6452 96.7788 42.1783C96.2452 42.7138 96.2452 43.5794 96.7788 44.1142Z" fill="#8A6343"/>
<path d="M76.2431 42.2231C76.777 42.758 77.6436 42.7569 78.1774 42.2231C78.7133 41.6888 78.7133 40.8231 78.1774 40.2883C77.6436 39.754 76.777 39.754 76.2431 40.2883C75.7093 40.822 75.7093 41.6888 76.2431 42.2231Z" fill="#8A6343"/>
<path d="M76.2431 53.3919C76.777 53.9262 77.6436 53.9262 78.1774 53.3919C78.7133 52.8576 78.7133 51.9913 78.1774 51.4572C77.6436 50.9228 76.777 50.9228 76.2431 51.4572C75.7093 51.9903 75.7093 52.8576 76.2431 53.3919Z" fill="#8A6343"/>
<path d="M76.2431 64.6496C76.777 65.1839 77.6436 65.1839 78.1774 64.6496C78.7133 64.1153 78.7133 63.2492 78.1774 62.7148C77.6436 62.1805 76.777 62.1805 76.2431 62.7137C75.7093 63.2492 75.7093 64.1153 76.2431 64.6496Z" fill="#8A6343"/>
<path d="M65.6906 52.7761C66.2249 53.3104 67.0906 53.3104 67.6254 52.7761C68.1597 52.2418 68.1597 51.3756 67.6254 50.8413C67.0904 50.3068 66.2248 50.3068 65.6906 50.8402C65.1558 51.3756 65.1558 52.2418 65.6906 52.7761Z" fill="#8A6343"/>
<path d="M58.2145 60.2518C58.7493 60.7861 59.6161 60.7849 60.1497 60.2518C60.684 59.7174 60.684 58.8511 60.1497 58.317C59.6149 57.7827 58.7493 57.7827 58.2145 58.317C57.6801 58.8502 57.6801 59.7174 58.2145 60.2518Z" fill="#8A6343"/>
<path d="M65.6906 63.9444C66.2249 64.4792 67.0906 64.4792 67.6265 63.9444C68.1586 63.4113 68.1597 62.5445 67.6256 62.0108C67.0906 61.4765 66.2238 61.4765 65.6908 62.0103C65.1558 62.5443 65.1558 63.4101 65.6906 63.9444Z" fill="#8A6343"/>
<path d="M65.6906 75.2026C66.2249 75.7369 67.0906 75.7369 67.6265 75.2015C68.1586 74.6678 68.1597 73.8021 67.6256 73.2672C67.0906 72.7329 66.2238 72.7329 65.6908 73.2662C65.1558 73.801 65.1558 74.6678 65.6906 75.2026Z" fill="#8A6343"/>
</g>
<g opacity="0.17">
<path d="M91.0179 86.9857C90.4841 86.4514 89.6175 86.4525 89.0836 86.9857C88.5498 87.5205 88.5498 88.3862 89.0836 88.921C89.6175 89.4553 90.4841 89.4553 91.0179 88.921C91.5518 88.3873 91.554 87.5216 91.0179 86.9857Z" fill="#8A6343"/>
<path d="M91.0179 75.8173C90.4841 75.283 89.6175 75.2837 89.0837 75.8173C88.5498 76.3516 88.5477 77.2173 89.0837 77.7521C89.6175 78.2864 90.4841 78.2864 91.0179 77.7521C91.5518 77.2184 91.5518 76.3516 91.0179 75.8173Z" fill="#8A6343"/>
<path d="M91.0179 64.5608C90.4841 64.0258 89.6175 64.0258 89.0837 64.5608C88.5498 65.094 88.5477 65.9612 89.0837 66.4944C89.6175 67.0287 90.4841 67.0287 91.0179 66.4956C91.5518 65.9614 91.5518 65.0951 91.0179 64.5608Z" fill="#8A6343"/>
<path d="M80.5969 86.239C80.0631 85.7047 79.1963 85.7047 78.6626 86.239C78.1288 86.7728 78.1288 87.6396 78.6626 88.1738C79.1963 88.7081 80.0631 88.707 80.5969 88.1738C81.1306 87.6396 81.1306 86.7733 80.5969 86.239Z" fill="#8A6343"/>
<path d="M80.5969 74.9815C80.0631 74.4472 79.1963 74.4483 78.6626 74.9815C78.1288 75.5158 78.1288 76.382 78.6626 76.9163C79.1963 77.4511 80.0631 77.4511 80.5969 76.9163C81.1306 76.3831 81.1306 75.5157 80.5969 74.9815Z" fill="#8A6343"/>
<path d="M101.133 76.8727C100.599 76.3379 99.7321 76.3379 99.1983 76.8727C98.6646 77.4058 98.6624 78.2726 99.1983 78.8074C99.7321 79.3418 100.599 79.3418 101.133 78.8074C101.666 78.2738 101.666 77.407 101.133 76.8727Z" fill="#8A6343"/>
<path d="M101.133 65.7038C100.599 65.1695 99.7299 65.1695 99.1983 65.7038C98.6624 66.237 98.6624 67.1043 99.1983 67.6386C99.7321 68.1729 100.599 68.1729 101.133 67.6386C101.666 67.1043 101.666 66.2381 101.133 65.7038Z" fill="#8A6343"/>
<path d="M101.133 54.4461C100.599 53.9118 99.7299 53.913 99.1983 54.4461C98.6624 54.9804 98.6624 55.8468 99.1983 56.3809C99.7321 56.9152 100.599 56.9152 101.133 56.3809C101.666 55.8479 101.666 54.9804 101.133 54.4461Z" fill="#8A6343"/>
<path d="M111.686 66.3198C111.15 65.7855 110.286 65.7855 109.75 66.3198C109.216 66.8541 109.216 67.7203 109.75 68.2546C110.286 68.7889 111.15 68.7889 111.686 68.2546C112.22 67.7203 112.22 66.854 111.686 66.3198Z" fill="#8A6343"/>
<path d="M119.161 58.8442C118.627 58.3099 117.76 58.311 117.224 58.8453C116.691 59.3785 116.691 60.2446 117.226 60.7789C117.76 61.3133 118.627 61.3133 119.161 60.7799C119.694 60.2458 119.694 59.3783 119.161 58.8442Z" fill="#8A6343"/>
<path d="M111.686 55.1503C111.15 54.6165 110.286 54.6165 109.75 55.1508C109.216 55.6856 109.216 56.5513 109.75 57.0861C110.286 57.6204 111.15 57.6204 111.686 57.0861C112.22 56.5515 112.22 55.6858 111.686 55.1503Z" fill="#8A6343"/>
</g>
</g>
<defs>
<clipPath id="clip0_1_264">
<rect width="83" height="83" fill="white" transform="translate(49 15.5)"/>
</clipPath>
</defs>
</svg>
