<svg width="181" height="118" viewBox="0 0 181 118" fill="none" xmlns="http://www.w3.org/2000/svg">
<g clip-path="url(#clip0_1_266)">
<path d="M63.1897 37.0087L97.9062 14.6207V52.1724L63.1897 37.0087Z" fill="#FFAD41"/>
<path d="M125.907 62.9477C127.241 61.4422 128.052 59.4626 128.052 57.2931C128.052 52.5797 124.231 48.7586 119.517 48.7586C118.854 48.7586 118.209 48.8368 117.589 48.9798C117.733 48.3606 117.81 47.715 117.81 47.0517C117.81 42.3383 113.989 38.5172 109.276 38.5172C108.04 38.5172 106.866 38.7818 105.806 39.2546C105.324 34.998 101.713 31.6897 97.3276 31.6897C94.5354 31.6897 92.057 33.0306 90.5 35.1034C88.943 33.0306 86.4645 31.6897 83.6724 31.6897C79.2867 31.6897 75.6756 34.998 75.1943 39.2546C74.1339 38.7818 72.9603 38.5172 71.7241 38.5172C67.0107 38.5172 63.1896 42.3383 63.1896 47.0517C63.1896 47.715 63.2678 48.3606 63.4109 48.9798C62.7909 48.8368 62.1461 48.7586 61.4828 48.7586C56.7693 48.7586 52.9483 52.5797 52.9483 57.2931C52.9483 59.4626 53.7594 61.4422 55.0932 62.9477C53.5044 63.539 52.1416 64.5918 51.1611 65.9416H90.5H129.839C128.858 64.5921 127.496 63.5393 125.907 62.9477Z" fill="#BD720D"/>
<path d="M51.1615 65.9416H90.5V35.1034C88.943 33.0306 86.4646 31.6897 83.6724 31.6897C79.2867 31.6897 75.6756 34.998 75.1943 39.2546C74.1339 38.7818 72.9603 38.5172 71.7241 38.5172C67.0107 38.5172 63.1897 42.3383 63.1897 47.0517C63.1897 47.715 63.2678 48.3606 63.4109 48.9798C62.7909 48.8368 62.1461 48.7586 61.4828 48.7586C56.7693 48.7586 52.9483 52.5797 52.9483 57.2931C52.9483 59.4626 53.7594 61.4422 55.0932 62.9477C53.5044 63.5393 52.1416 64.5921 51.1615 65.9416Z" fill="#804C09"/>
<path d="M107.983 18.0345L136.95 47.0015L100.741 54.2432L107.983 18.0345Z" fill="#FFE98F"/>
<path d="M104.155 62.4138C109.811 62.4138 114.397 57.8286 114.397 52.1724C114.397 46.5163 109.811 41.931 104.155 41.931C98.499 41.931 93.9138 46.5163 93.9138 52.1724C93.9138 57.8286 98.499 62.4138 104.155 62.4138Z" fill="#BD720D"/>
<path d="M76.4304 18.0345L47.4637 47.0015L83.6724 54.2432L76.4304 18.0345Z" fill="#FFDA44"/>
<path d="M80.2586 62.4138C85.9148 62.4138 90.5 57.8286 90.5 52.1724C90.5 46.5163 85.9148 41.931 80.2586 41.931C74.6025 41.931 70.0172 46.5163 70.0172 52.1724C70.0172 57.8286 74.6025 62.4138 80.2586 62.4138Z" fill="#804C09"/>
<path d="M134.879 62.4138H46.1207C43.2927 62.4138 41 64.7065 41 67.5345C41 70.3625 43.2927 72.6552 46.1207 72.6552H49.5345C49.5345 84.6936 58.4373 94.6482 70.0172 96.3049V103.379H110.983V96.3049C122.563 94.6478 131.466 84.6932 131.466 72.6552H134.879C137.707 72.6552 140 70.3625 140 67.5345C140 64.7065 137.707 62.4138 134.879 62.4138Z" fill="#91DC5A"/>
<path d="M46.1207 62.4138C43.2927 62.4138 41 64.7065 41 67.5345C41 70.3625 43.2927 72.6552 46.1207 72.6552H49.5345C49.5345 84.6936 58.4373 94.6482 70.0172 96.3049V103.379H90.5V62.4138H46.1207Z" fill="#64C37D"/>
</g>
<defs>
<clipPath id="clip0_1_266">
<rect width="99" height="99" fill="white" transform="translate(41 9.5)"/>
</clipPath>
</defs>
</svg>
