<svg width="181" height="118" viewBox="0 0 181 118" fill="none" xmlns="http://www.w3.org/2000/svg">
<g clip-path="url(#clip0_1_273)">
<path d="M115.97 71.826C116.313 70.9002 116.254 69.8734 115.808 68.9927C111.958 61.3921 106.963 54.4958 100.962 48.4952C94.975 42.5072 88.0917 37.5257 80.505 33.6889C80.3348 33.6028 80.1578 33.5308 79.976 33.473C78.2218 32.9167 76.3335 33.7952 75.6289 35.4959L51.7703 93.0976C51.2214 94.4226 51.525 95.9476 52.5388 96.9613C53.5525 97.9755 55.0776 98.2786 56.4026 97.73L114.002 73.8705C114.914 73.4925 115.627 72.7518 115.97 71.826Z" fill="#F4D853"/>
<path d="M115.97 71.826C116.313 70.9002 116.254 69.8734 115.808 68.9927C111.962 61.4008 106.974 54.5113 100.983 48.5155L52.5378 96.9604C52.5381 96.9609 52.5385 96.9612 52.539 96.9613C53.5527 97.9755 55.0778 98.2786 56.4028 97.73L114.002 73.8705C114.914 73.4925 115.627 72.7518 115.97 71.826Z" fill="#E9A440"/>
<path d="M129.23 66.4397C129.59 65.5709 129.59 64.5947 129.229 63.7263C125.16 53.9024 119.302 45.1263 111.816 37.6407C104.359 30.1833 95.597 24.3392 85.7735 20.2709C83.9646 19.5216 81.8906 20.3806 81.141 22.1893L75.6291 35.4959C75.2493 36.4127 75.2712 37.4468 75.6896 38.3468C76.0294 39.0776 76.6052 39.666 77.3152 40.0219C84.2266 43.5188 90.4958 48.0562 95.9486 53.5094C101.418 58.979 105.972 65.2662 109.483 72.1971C109.656 72.5405 109.879 72.8435 110.138 73.1027C111.127 74.0914 112.645 74.4326 114.002 73.8708L127.311 68.3591C128.18 67.9987 128.87 67.3084 129.23 66.4397Z" fill="#E9A440"/>
<path d="M91.2265 63.701C88.7287 66.1977 84.6786 66.1983 82.1809 63.701C79.6831 61.2029 79.6831 57.1533 82.1809 54.6554C84.6783 52.1578 88.7284 52.1578 91.2265 54.6554C93.7234 57.1534 93.7234 61.2027 91.2265 63.701Z" fill="#E07188"/>
<path d="M71.3259 75.5233C74.8583 75.5233 77.7218 72.6597 77.7218 69.1274C77.7218 65.5951 74.8583 62.7315 71.3259 62.7315C67.7936 62.7315 64.9301 65.5951 64.9301 69.1274C64.9301 72.6597 67.7936 75.5233 71.3259 75.5233Z" fill="#E07188"/>
<path d="M93.9396 80.8864C91.4422 83.3842 87.3922 83.3842 84.894 80.8864C82.3971 78.389 82.3971 74.3389 84.894 71.8411C87.3919 69.3437 91.4419 69.3439 93.9396 71.8414C96.4376 74.3389 96.4376 78.3889 93.9396 80.8864Z" fill="#DC4161"/>
<path d="M129.23 66.4397C129.59 65.5709 129.59 64.5947 129.229 63.7263C125.164 53.9119 119.312 45.1426 111.837 37.6617L95.9687 53.5298C101.429 58.9947 105.976 65.2748 109.483 72.1974C109.656 72.5408 109.879 72.8438 110.138 73.103C111.127 74.0917 112.645 74.4329 114.002 73.8711L127.311 68.3594C128.18 67.9987 128.87 67.3084 129.23 66.4397Z" fill="#E17858"/>
<path d="M91.2265 63.701C93.0807 61.8461 93.5563 59.1362 92.6572 56.8408L84.3663 65.1319C86.6612 66.0311 89.3716 65.5551 91.2265 63.701Z" fill="#DC4161"/>
</g>
<defs>
<clipPath id="clip0_1_273">
<rect width="78" height="78" fill="white" transform="translate(51.5 20)"/>
</clipPath>
</defs>
</svg>
