<svg width="181" height="118" viewBox="0 0 181 118" fill="none" xmlns="http://www.w3.org/2000/svg">
<g clip-path="url(#clip0_1_267)">
<path d="M72.9355 86.8536H59.2721V71.9511H72.9355V86.8536Z" fill="#744E12"/>
<path d="M121.728 86.8536H108.064V71.9511H121.728V86.8536Z" fill="#3D2B0C"/>
<path d="M78.486 64.714H59.514C55.4901 64.714 52.2162 61.4401 52.2162 57.4162V38.4441C52.2162 34.4203 55.4899 31.1464 59.514 31.1464H78.4859C82.5097 31.1464 85.7836 34.4203 85.7836 38.4441V57.4164C85.7836 61.4401 82.5099 64.714 78.486 64.714Z" fill="#EDEDEE"/>
<path d="M78.486 64.714H69C69 60.3888 69 33.1906 69 31.1464H78.486C82.5099 31.1464 85.7838 34.4203 85.7838 38.4441V57.4164C85.7836 61.4401 82.5099 64.714 78.486 64.714Z" fill="#DDDCDF"/>
<path d="M69 54.0785C65.6097 54.0785 62.8515 51.3203 62.8515 47.93C62.8515 44.5397 65.6097 41.7815 69 41.7815C72.3903 41.7815 75.1485 44.5397 75.1485 47.93C75.1485 51.3203 72.3903 54.0785 69 54.0785Z" fill="#E3744E"/>
<path d="M69 54.0785C69 49.6477 69 43.9695 69 41.7817C72.3903 41.7817 75.1485 44.5399 75.1485 47.9302C75.1485 51.3205 72.3903 54.0785 69 54.0785Z" fill="#E05323"/>
<path d="M132.075 64.714H91.9245V57.7604C91.9245 49.3628 98.7563 42.5312 107.154 42.5312H116.846C125.243 42.5312 132.075 49.363 132.075 57.7604V64.7138H132.075V64.714Z" fill="#EDEDEE"/>
<path d="M132.075 64.714H112.001C112.001 64.714 112 51.1876 112 42.5313H116.846C125.243 42.5313 132.075 49.3631 132.075 57.7606V64.7138H132.075V64.714Z" fill="#DDDCDF"/>
<path d="M105.573 49.5672H118.418C123.954 49.5672 128.851 51.7483 131.836 55.0914C130.57 47.9628 124.333 42.531 116.846 42.531H107.154C99.6723 42.531 93.438 47.9556 92.1663 55.0771C95.1529 51.7417 100.044 49.5672 105.573 49.5672Z" fill="#E3744E"/>
<path d="M112 49.5672H118.418C123.954 49.5672 128.851 51.7483 131.836 55.0914C130.57 47.9628 124.333 42.531 116.846 42.531H112V49.5672Z" fill="#E05323"/>
<path d="M133.5 77.5597H47.5V61.8828H133.5V77.5597Z" fill="#AB7315"/>
<path d="M133.5 77.5597H90.5V61.8828H133.5V77.5597Z" fill="#744E12"/>
</g>
<defs>
<clipPath id="clip0_1_267">
<rect width="86" height="86" fill="white" transform="translate(47.5 16)"/>
</clipPath>
</defs>
</svg>
