<svg width="181" height="118" viewBox="0 0 181 118" fill="none" xmlns="http://www.w3.org/2000/svg">
<path d="M130.015 28.5938C128.388 26.9653 126.268 26.0058 124.042 25.8909C121.73 25.7855 119.535 26.5837 117.935 28.1845L97.2188 48.9006C96.1036 50.0147 96.0928 51.79 97.1397 52.9452H118.157L130.426 40.6769C132.026 39.0764 132.841 36.9074 132.72 34.5678C132.605 32.3434 131.645 30.2223 130.015 28.5938Z" fill="#B7C4CC"/>
<path d="M104.212 84.5918H68.879C67.2536 84.5918 65.9346 85.9098 65.9346 87.5362V94.1668C65.9346 99.0376 69.897 103 74.7678 103H98.3229C103.194 103 107.156 99.0376 107.156 94.1668V87.5362C107.156 85.9096 105.837 84.5918 104.212 84.5918Z" fill="#FF9F19"/>
<path d="M104.212 84.5918H86.5453V103H98.3229C103.194 103 107.156 99.0376 107.156 94.1668V87.5362C107.156 85.9096 105.837 84.5918 104.212 84.5918Z" fill="#F28618"/>
<path d="M98.3229 91.2224H74.7678C60.1551 91.2224 48.2682 79.3345 48.2682 64.7229V50.9824C48.2682 49.3559 49.5872 48.038 51.2126 48.038H121.878C123.503 48.038 124.822 49.3559 124.822 50.9824V64.7229C124.822 79.3345 112.936 91.2224 98.3229 91.2224Z" fill="#736056"/>
<path d="M121.878 48.0382H86.5453V91.2224H98.3229C112.936 91.2224 124.822 79.3345 124.822 64.7229V50.9824C124.822 49.3561 123.504 48.0382 121.878 48.0382Z" fill="#665247"/>
<path d="M74.7678 79.4449C66.6498 79.4449 60.0458 72.8411 60.0458 64.7229C60.0458 63.0965 61.3648 61.7785 62.9902 61.7785C64.6156 61.7785 65.9346 63.0965 65.9346 64.7229C65.9346 69.5937 69.897 73.5561 74.7678 73.5561C76.3932 73.5561 77.7122 74.874 77.7122 76.5005C77.7122 78.1269 76.3935 79.4449 74.7678 79.4449Z" fill="#997F72"/>
<path d="M66.4404 40.6781C65.6257 39.2712 66.107 37.4692 67.515 36.6556C69.3398 35.5985 69.3398 32.1803 67.515 31.1233C61.7737 27.8025 61.7771 18.7165 67.514 15.3969C68.922 14.5813 70.7239 15.0634 71.5375 16.4704C72.3522 17.8784 71.871 19.6793 70.464 20.494C68.6377 21.5493 68.6377 24.971 70.464 26.0263C76.2026 29.3457 76.2024 38.434 70.463 41.7527C69.0493 42.5705 67.2508 42.0808 66.4404 40.6781Z" fill="#88CC2A"/>
<path d="M89.9955 40.6781C89.1809 39.2712 89.6621 37.4692 91.0701 36.6556C92.8949 35.5985 92.8949 32.1803 91.0701 31.1233C85.3288 27.8025 85.3322 18.7165 91.0691 15.3969C92.48 14.5813 94.279 15.0634 95.0927 16.4704C95.9074 17.8784 95.4261 19.6793 94.0191 20.494C92.1928 21.5493 92.1928 24.971 94.0191 26.0263C99.7579 29.3457 99.7575 38.434 94.0181 41.7527C92.6044 42.5705 90.8058 42.0808 89.9955 40.6781Z" fill="#7FB335"/>
<path d="M82.2387 41.7458C81.7675 42.0206 81.2572 42.1384 80.7665 42.1384C79.7458 42.1384 78.7448 41.6281 78.2147 40.6859C77.4102 39.2725 77.8813 37.4666 79.2943 36.6619C81.1196 35.602 81.1196 32.1865 79.2943 31.1265C73.5432 27.8092 73.5627 18.7209 79.2943 15.4036C79.7654 15.1287 80.2757 15.011 80.7664 15.011C81.7871 15.011 82.7685 15.5213 83.3182 16.4635C84.1227 17.8768 83.6516 19.6827 82.2387 20.4875C80.4133 21.5474 80.4133 24.9629 82.2387 26.0229C87.9899 29.3404 87.9702 38.4285 82.2387 41.7458Z" fill="#88CC2A"/>
</svg>
