<svg width="181" height="118" viewBox="0 0 181 118" fill="none" xmlns="http://www.w3.org/2000/svg">
<g clip-path="url(#clip0_1_270)">
<path d="M128.59 48.5154C123.997 31.7894 108.685 19.5 90.5 19.5C68.6847 19.5 51 37.1847 51 59C51 77.1848 63.2894 92.4969 80.0154 97.0905L128.59 48.5154Z" fill="#92CCFF"/>
<path d="M130 59C130 55.3695 129.508 51.8547 128.59 48.5154L114.787 34.7123L66.2124 83.2876L80.0155 97.0907C83.3547 98.0078 86.8697 98.5002 90.5001 98.5002C112.315 98.5 130 80.8151 130 59Z" fill="#2598FE"/>
<path d="M90.5 24.6521L73.3261 59L90.5 93.3479C109.47 93.3479 124.848 77.9699 124.848 59C124.848 40.0301 109.47 24.6521 90.5 24.6521Z" fill="#FFF3AD"/>
<path d="M56.1521 59C56.1521 77.9697 71.5301 93.3479 90.5 93.3479V24.6521C71.5303 24.6521 56.1521 40.0303 56.1521 59Z" fill="white"/>
<path d="M90.5 29.8044L75.9021 59L90.5 88.1956C106.624 88.1956 119.696 75.1243 119.696 59C119.696 42.8757 106.624 29.8044 90.5 29.8044Z" fill="#FFD23E"/>
<path d="M61.3044 59C61.3044 75.1245 74.3758 88.1956 90.5 88.1956V29.8044C74.3758 29.8044 61.3044 42.8755 61.3044 59Z" fill="#FFE376"/>
<path d="M119.696 59L80.768 62.8928L90.5 29.8044C94.6418 29.8044 98.2797 31.963 100.352 35.2154C104.117 34.3824 108.216 35.4256 111.145 38.3551C114.074 41.2846 115.118 45.3835 114.285 49.1477C117.537 51.2222 119.696 54.8582 119.696 59Z" fill="#A0AD2F"/>
<path d="M80.768 59H119.696C119.696 63.1418 117.537 66.7778 114.285 68.8525C115.118 72.6169 114.074 76.7159 111.145 79.6451C108.216 82.5742 104.117 83.6176 100.352 82.7847C98.2795 86.0371 94.6416 88.1957 90.4998 88.1957L80.768 59Z" fill="#81982D"/>
<path d="M90.5 59V88.1956C86.3582 88.1956 82.7204 86.037 80.6475 82.7846C76.8832 83.6176 72.7841 82.5744 69.8549 79.6449C66.9258 76.7156 65.8824 72.6165 66.7153 68.8523C63.4629 66.7778 61.3044 63.1418 61.3044 59L75.9023 53.1609L90.5 59Z" fill="#A0AD2F"/>
<path d="M90.5 29.8044V59H61.3044C61.3044 54.8582 63.463 51.2222 66.7154 49.1475C65.8824 45.3831 66.9256 41.2841 69.8551 38.3549C72.7846 35.4258 76.8835 34.3824 80.6477 35.2153C82.7204 31.9629 86.3582 29.8044 90.5 29.8044Z" fill="#BEC130"/>
<path d="M106.287 43.2131L98.0897 45.9456L95.3573 54.1427C98.3755 57.1609 103.269 57.1609 106.287 54.1427C109.305 51.1244 109.305 46.2312 106.287 43.2131Z" fill="#FFD23E"/>
<path d="M95.3574 43.2131C92.3392 46.2313 92.3392 51.1244 95.3574 54.1426L106.287 43.2131C103.269 40.1951 98.3756 40.1949 95.3574 43.2131Z" fill="#FFE376"/>
<path d="M112.826 59L105.098 55.1359L97.3696 59C97.3696 63.2682 100.83 66.7283 105.098 66.7283C109.366 66.7283 112.826 63.2682 112.826 59Z" fill="#FFD23E"/>
<path d="M105.098 51.2717C100.83 51.2717 97.3696 54.7317 97.3696 59H112.826C112.826 54.7318 109.366 51.2717 105.098 51.2717Z" fill="#FFE376"/>
<path d="M106.287 74.7869L103.554 66.5897L95.3573 63.8573C92.3391 66.8755 92.3391 71.7685 95.3573 74.7867C98.3756 77.8049 103.269 77.8049 106.287 74.7869Z" fill="#FFD23E"/>
<path d="M106.287 63.8574C103.269 60.8392 98.3756 60.8392 95.3574 63.8574L106.287 74.7869C109.305 71.7688 109.305 66.8756 106.287 63.8574Z" fill="#FFE376"/>
<path d="M90.5 81.3261L94.3641 73.5979L90.5 65.8696C86.2318 65.8696 82.7717 69.3296 82.7717 73.5979C82.7717 77.866 86.2318 81.3261 90.5 81.3261Z" fill="#FFD23E"/>
<path d="M98.2283 73.5979C98.2283 69.3297 94.7683 65.8696 90.5 65.8696V81.3261C94.7682 81.3261 98.2283 77.866 98.2283 73.5979Z" fill="#FFE376"/>
<path d="M74.7131 74.7869L82.9103 72.0544L85.6427 63.8573C82.6245 60.8391 77.7315 60.8391 74.7133 63.8573C71.6949 66.8756 71.6951 71.7688 74.7131 74.7869Z" fill="#FFD23E"/>
<path d="M85.6426 74.7869C88.6608 71.7687 88.6608 66.8756 85.6426 63.8574L74.7131 74.7869C77.7312 77.8049 82.6244 77.8049 85.6426 74.7869Z" fill="#FFE376"/>
<path d="M68.1739 59L75.9021 62.8641L83.6304 59C83.6304 54.7318 80.1704 51.2717 75.9021 51.2717C71.6338 51.2717 68.1739 54.7318 68.1739 59Z" fill="#FFD23E"/>
<path d="M75.9021 66.7283C80.1703 66.7283 83.6304 63.2683 83.6304 59H68.1739C68.1739 63.2682 71.634 66.7283 75.9021 66.7283Z" fill="#FFE376"/>
<path d="M74.7131 43.2131L77.4456 51.4103L85.6427 54.1427C88.6609 51.1245 88.6609 46.2315 85.6427 43.2133C82.6245 40.1951 77.7312 40.1951 74.7131 43.2131Z" fill="#FFD23E"/>
<path d="M74.7131 54.1426C77.7313 57.1608 82.6244 57.1608 85.6426 54.1426L74.7131 43.2131C71.6951 46.2312 71.6949 51.1244 74.7131 54.1426Z" fill="#FFE376"/>
<path d="M90.5 36.6739L86.6359 44.4021L90.5 52.1304C94.7682 52.1304 98.2283 48.6704 98.2283 44.4021C98.2283 40.1338 94.7682 36.6739 90.5 36.6739Z" fill="#FFD23E"/>
<path d="M82.7717 44.4021C82.7717 48.6703 86.2317 52.1304 90.5 52.1304V36.6739C86.2318 36.6739 82.7717 40.134 82.7717 44.4021Z" fill="#FFE376"/>
<path d="M102.35 60.9887C102.35 68.2533 96.8956 74.4565 90.4983 74.4565L87.0635 59L90.4983 43.5435C96.6483 43.5435 102.35 51.5809 102.35 60.9887Z" fill="#FFF3AD"/>
<path d="M90.4983 43.5435V74.4565C84.101 74.4565 78.65 68.2533 78.65 60.9887C78.65 51.5809 84.35 43.5435 90.4983 43.5435Z" fill="white"/>
<path d="M90.5 55.5652L86.6359 63.2935L90.5 71.0217C94.7682 71.0217 98.2283 67.5618 98.2283 63.2935C98.2283 59.0253 94.7682 55.5652 90.5 55.5652Z" fill="#FA690E"/>
<path d="M82.7717 63.2935C82.7717 67.5616 86.2317 71.0217 90.5 71.0217V55.5652C86.2318 55.5652 82.7717 59.0253 82.7717 63.2935Z" fill="#FC870B"/>
</g>
<defs>
<clipPath id="clip0_1_270">
<rect width="79" height="79" fill="white" transform="translate(51 19.5)"/>
</clipPath>
</defs>
</svg>
